<svg xmlns="http://www.w3.org/2000/svg" viewBox="0 0 920 144" width="920" height="144" role="img" aria-labelledby="t d"><title id="t">Elsewhere</title><desc id="d">Based in Minsk, Belarus, also in Moscow, Russia. HSE University, B.S. Information Science, 2023 to 2027. Russian native, English intermediate.</desc><rect x="0.5" y="0.5" width="919" height="143" rx="14" fill="#0D141B" stroke="#1B2530"/><text x="26" y="34" font-family="Menlo,Consolas,'DejaVu Sans Mono',monospace" font-size="11" letter-spacing="1.9" fill="#E6EDF3">/ ELSEWHERE</text><text x="894" y="34" font-family="Menlo,Consolas,'DejaVu Sans Mono',monospace" font-size="9.5" letter-spacing="1.5" fill="#5A7186" text-anchor="end">BASED IN</text><line x1="26" y1="48.5" x2="894" y2="48.5" stroke="#1B2530"/><rect x="40" y="65.3" width="20" height="9" fill="#C8313E"/><rect x="40" y="74.3" width="20" height="5" fill="#00A85A"/><rect x="40.5" y="65.8" width="19" height="13" rx="1.5" fill="none" stroke="#0A0F14" stroke-opacity=".55"/><text x="67" y="84" font-family="-apple-system,BlinkMacSystemFont,'Segoe UI',Roboto,Helvetica,Arial,sans-serif" font-size="15" letter-spacing="0.0" fill="#E6EDF3">Minsk, Belarus</text><circle cx="191.8" cy="79.8" r="2.6" fill="#E6EDF3"/><rect x="200.2" y="65.3" width="20" height="5" fill="#FFFFFF"/><rect x="200.2" y="70.3" width="20" height="5" fill="#0039A6"/><rect x="200.2" y="75.3" width="20" height="5" fill="#D52B1E"/><rect x="200.7" y="65.8" width="19" height="13" rx="1.5" fill="none" stroke="#0A0F14" stroke-opacity=".55"/><text x="227.2" y="84" font-family="-apple-system,BlinkMacSystemFont,'Segoe UI',Roboto,Helvetica,Arial,sans-serif" font-size="15" letter-spacing="0.0" fill="#E6EDF3">Moscow, Russia</text><circle cx="42.6" cy="114.5" r="2.6" fill="#8FA9BE"/><text x="51" y="118" font-family="Menlo,Consolas,'DejaVu Sans Mono',monospace" font-size="12.5" letter-spacing="0.0" fill="#8FA9BE">HSE University · B.S. Information Science</text><circle cx="373.12" cy="114.5" r="2.6" fill="#8FA9BE"/><text x="381.52" y="118" font-family="Menlo,Consolas,'DejaVu Sans Mono',monospace" font-size="12.5" letter-spacing="0.0" fill="#8FA9BE">2023 – 2027</text></svg>
